<?xml version="1.0" standalone="no"?>
<!DOCTYPE svg PUBLIC "-//W3C//DTD SVG 1.1//EN"
  "http://www.w3.org/Graphics/SVG/1.1/DTD/svg11.dtd">
<svg width="979mm" height="984.9999999999998mm" viewBox="-497 -491.9999999999999 979 984.9999999999998" xmlns="http://www.w3.org/2000/svg" version="1.1">
	<title>svgOutput</title>
	<desc>made with tinkercad</desc>
<path d="M 16 441.99798583984364 L -18 441.99798583984364 L -22 441.99798583984364 L -74.00299835205078 441.99798583984364 L -74.00299835205078 475.33599853515614 L -74.0009994506836 475.33599853515614 L -43.999000549316406 475.33599853515614 L -22 475.33599853515614 L -18 475.33599853515614 L -13.998000144958496 475.33599853515614 L 16 475.33599853515614 L 16 491.9999999999999 L -13.998000144958496 491.9999999999999 L -13.998000144958496 488.66400146484364 L -18 488.66400146484364 L -22 488.66400146484364 L -43.999000549316406 488.66400146484364 L -43.999000549316406 491.9999999999999 L -74.0009994506836 491.9999999999999 L -74.0009994506836 488.66400146484364 L -74.00299835205078 488.66400146484364 L -100.99800109863281 488.66400146484364 L -104 488.66400146484364 L -104 488.0209960937499 L -100.99800109863281 488.0209960937499 L -100.99800109863281 452.3489990234374 L -104 452.3489990234374 L -104 392.3540039062499 L -100.99800109863281 392.3540039062499 L -100.99800109863281 364.2219848632812 L -100.99800109863281 357.55801391601557 L -74.00299835205078 357.55801391601557 L -43.99800109863281 357.55801391601557 L -43.99800109863281 354.22000122070307 L -74.00299835205078 354.22000122070307 L -100.99800109863281 354.22000122070307 L -100.99800109863281 332.34899902343744 L -104 332.34899902343744 L -104 272.35400390624994 L -100.99800109863281 272.35400390624994 L -100.99800109863281 229.77999877929682 L -74.00299835205078 229.77999877929682 L -43.99800109863281 229.77999877929682 L -43.99800109863281 226.44200134277338 L -74.00299835205078 226.44200134277338 L -100.99800109863281 226.44200134277338 L -100.99800109863281 219.77799987792963 L -100.99800109863281 212.34899902343744 L -104 212.34899902343744 L -104 152.00300598144528 L -100.99800109863281 152.00300598144528 L -100.99800109863281 95.33599853515624 L -74.00299835205078 95.33599853515624 L -74.0009994506836 95.33599853515624 L -74.0009994506836 91.99999999999999 L -43.999000549316406 91.99999999999999 L -43.999000549316406 95.33599853515624 L -22 95.33599853515624 L -18 95.33599853515624 L -13.998000144958496 95.33599853515624 L -13.998000144958496 91.99999999999999 L 16 91.99999999999999 L 16 108.66400146484372 L -13.998000144958496 108.66400146484372 L -18 108.66400146484372 L -22 108.66400146484372 L -43.999000549316406 108.66400146484372 L -74.0009994506836 108.66400146484372 L -74.00299835205078 108.66400146484372 L -74.00299835205078 142.00300598144528 L -22 142.00300598144528 L -18 142.00300598144528 L 16 142.00300598144528 L 16 186.4420013427734 L -18 186.4420013427734 L -22 186.4420013427734 L -74.00299835205078 186.4420013427734 L -74.00299835205078 219.77799987792963 L -43.99800109863281 219.77799987792963 L -22 219.77799987792963 L -18 219.77799987792963 L 16 219.77799987792963 L 16 236.44200134277338 L 16 236.44400024414057 L -18 236.44400024414057 L -22 236.44400024414057 L -74.00299835205078 236.44400024414057 L -74.00299835205078 269.7799987792968 L -22 269.7799987792968 L -18 269.7799987792968 L 16 269.7799987792968 L 16 314.22000122070307 L -18 314.22000122070307 L -22 314.22000122070307 L -74.00299835205078 314.22000122070307 L -74.00299835205078 347.5559997558593 L -22 347.5559997558593 L -18 347.5559997558593 L 16 347.5559997558593 L 16 347.55801391601557 L 16 364.2219848632812 L -18 364.2219848632812 L -22 364.2219848632812 L -43.99800109863281 364.2219848632812 L -74.00299835205078 364.2219848632812 L -74.00299835205078 397.5580139160155 L -22 397.5580139160155 L -18 397.5580139160155 L 16 397.5580139160155 L 16 441.99798583984364 M -15.998000144958496 -370.99999999999994 L -15.998000144958496 -431.00299072265614 L -16 -431.00299072265614 L -16 -370.99999999999994 L -18 -370.99999999999994 L -22 -370.99999999999994 L -72 -370.99999999999994 L -128 -370.99999999999994 L -138 -370.99999999999994 L -142 -370.99999999999994 L -150.95899963378906 -370.99999999999994 L -151 -370.99999999999994 L -184 -370.99999999999994 L -200.9980010986328 -370.99999999999994 L -200.9980010986328 -431.00299072265614 L -204 -431.00299072265614 L -204 -487.99798583984364 L -184 -487.99798583984364 L -163.9980010986328 -487.99798583984364 L -163.9980010986328 -490.9999999999999 L -151 -490.9999999999999 L -150.95899963378906 -490.9999999999999 L -142 -490.9999999999999 L -138 -490.9999999999999 L -128 -490.9999999999999 L -124.00299835205078 -490.9999999999999 L -124.00299835205078 -487.99798583984364 L -83.99800109863281 -487.99798583984364 L -83.99800109863281 -490.9999999999999 L -72 -490.9999999999999 L -44.00299835205078 -490.9999999999999 L -44.00299835205078 -487.99798583984364 L -22 -487.99798583984364 L -18 -487.99798583984364 L -16 -487.99798583984364 L -3.997999906539917 -487.99798583984364 L -3.997999906539917 -490.9999999999999 L 4 -490.9999999999999 L 4 -487.99798583984364 L 4 -431.00299072265614 L 4 -370.99999999999994 L -15.998000144958496 -370.99999999999994 M -18 -159.00300598144528 L -22 -159.00300598144528 L -78.00299835205078 -159.00300598144528 L -78.00299835205078 -155.99999999999997 L -134.9980010986328 -155.99999999999997 L -134.9980010986328 -175.99999999999997 L -134.9980010986328 -196.00300598144526 L -138 -196.00300598144526 L -138 -231.99999999999994 L -138 -235.99800109863276 L -134.9980010986328 -235.99800109863276 L -134.9980010986328 -276.0029907226562 L -138 -276.0029907226562 L -138 -287.99999999999994 L -138 -315.9979858398437 L -134.9980010986328 -315.9979858398437 L -134.9980010986328 -343.99999999999994 L -134.9980010986328 -356.0029907226562 L -138 -356.0029907226562 L -138 -363.99999999999994 L -134.9980010986328 -363.99999999999994 L -78.00299835205078 -363.99999999999994 L -22 -363.99999999999994 L -18 -363.99999999999994 L -18 -344.0029907226562 L -22 -344.0029907226562 L -78.00299835205078 -344.0029907226562 L -78.00299835205078 -343.99999999999994 L -22 -343.99999999999994 L -18 -343.99999999999994 L -18 -287.99999999999994 L -18 -231.99999999999994 L -18 -175.99999999999997 L -18 -159.00300598144528 M -142.9980010986328 84.99999999999999 L -142 84.99999999999999 L -113 84.99999999999999 L -113 101.66400146484372 L -142 101.66400146484372 L -142.9980010986328 101.66400146484372 L -150.95899963378906 101.66400146484372 L -151 101.66400146484372 L -172.99899291992188 101.66400146484372 L -203.00100708007812 101.66400146484372 L -203.0030059814453 101.66400146484372 L -203.0030059814453 135.00300598144528 L -151 135.00300598144528 L -150.95899963378906 135.00300598144528 L -142 135.00300598144528 L -113 135.00300598144528 L -113 179.4420013427734 L -142 179.4420013427734 L -150.95899963378906 179.4420013427734 L -151 179.4420013427734 L -203.0030059814453 179.4420013427734 L -203.0030059814453 212.77799987792963 L -172.9980010986328 212.77799987792963 L -151 212.77799987792963 L -150.95899963378906 212.77799987792963 L -142 212.77799987792963 L -113 212.77799987792963 L -113 229.44200134277338 L -113 229.44400024414057 L -142 229.44400024414057 L -150.95899963378906 229.44400024414057 L -151 229.44400024414057 L -203.0030059814453 229.44400024414057 L -203.0030059814453 262.7799987792968 L -151 262.7799987792968 L -150.95899963378906 262.7799987792968 L -142 262.7799987792968 L -113 262.7799987792968 L -113 307.22000122070307 L -142 307.22000122070307 L -150.95899963378906 307.22000122070307 L -151 307.22000122070307 L -203.0030059814453 307.22000122070307 L -203.0030059814453 340.5559997558593 L -151 340.5559997558593 L -150.95899963378906 340.5559997558593 L -142 340.5559997558593 L -113 340.5559997558593 L -113 340.55801391601557 L -113 357.2219848632812 L -142 357.2219848632812 L -150.95899963378906 357.2219848632812 L -151 357.2219848632812 L -172.9980010986328 357.2219848632812 L -203.0030059814453 357.2219848632812 L -203.0030059814453 390.5580139160155 L -151 390.5580139160155 L -150.95899963378906 390.5580139160155 L -142 390.5580139160155 L -113 390.5580139160155 L -113 434.99798583984364 L -142 434.99798583984364 L -150.95899963378906 434.99798583984364 L -151 434.99798583984364 L -203.0030059814453 434.99798583984364 L -203.0030059814453 468.33599853515614 L -203.00100708007812 468.33599853515614 L -172.99899291992188 468.33599853515614 L -151 468.33599853515614 L -150.95899963378906 468.33599853515614 L -142.9980010986328 468.33599853515614 L -142 468.33599853515614 L -113 468.33599853515614 L -113 484.9999999999999 L -142 484.9999999999999 L -142.9980010986328 484.9999999999999 L -142.9980010986328 481.66400146484364 L -150.95899963378906 481.66400146484364 L -151 481.66400146484364 L -172.99899291992188 481.66400146484364 L -172.99899291992188 484.9999999999999 L -203.00100708007812 484.9999999999999 L -203.00100708007812 481.66400146484364 L -203.0030059814453 481.66400146484364 L -229.9980010986328 481.66400146484364 L -233 481.66400146484364 L -233 481.0209960937499 L -229.9980010986328 481.0209960937499 L -229.9980010986328 445.3489990234374 L -233 445.3489990234374 L -233 385.3540039062499 L -229.9980010986328 385.3540039062499 L -229.9980010986328 357.2219848632812 L -229.9980010986328 350.55801391601557 L -203.0030059814453 350.55801391601557 L -172.9980010986328 350.55801391601557 L -172.9980010986328 347.22000122070307 L -203.0030059814453 347.22000122070307 L -229.9980010986328 347.22000122070307 L -229.9980010986328 325.34899902343744 L -233 325.34899902343744 L -233 265.35400390624994 L -229.9980010986328 265.35400390624994 L -229.9980010986328 222.77999877929682 L -203.0030059814453 222.77999877929682 L -172.9980010986328 222.77999877929682 L -172.9980010986328 219.44200134277338 L -203.0030059814453 219.44200134277338 L -229.9980010986328 219.44200134277338 L -229.9980010986328 212.77799987792963 L -229.9980010986328 205.34899902343744 L -233 205.34899902343744 L -233 145.00300598144528 L -229.9980010986328 145.00300598144528 L -229.9980010986328 88.33599853515624 L -203.0030059814453 88.33599853515624 L -203.00100708007812 88.33599853515624 L -203.00100708007812 84.99999999999999 L -172.99899291992188 84.99999999999999 L -172.99899291992188 88.33599853515624 L -151 88.33599853515624 L -150.95899963378906 88.33599853515624 L -142.9980010986328 88.33599853515624 L -142.9980010986328 84.99999999999999 M -150.95899963378906 -351.0029907226562 L -151 -351.0029907226562 L -180.95599365234375 -351.0029907226562 L -180.95599365234375 -350.99999999999994 L -180.95599365234375 -347.9979858398437 L -151 -347.9979858398437 L -150.95899963378906 -347.9979858398437 L -150.95899963378906 -298.0029907226562 L -151 -298.0029907226562 L -180.95599365234375 -298.0029907226562 L -180.95599365234375 -294.99999999999994 L -180.95599365234375 -294.9979858398437 L -151 -294.9979858398437 L -150.95899963378906 -294.9979858398437 L -150.95899963378906 -242.00300598144526 L -151 -242.00300598144526 L -180.95599365234375 -242.00300598144526 L -180.95599365234375 -238.99999999999994 L -180.95599365234375 -238.99800109863276 L -151 -238.99800109863276 L -150.95899963378906 -238.99800109863276 L -150.95899963378906 -186.00300598144528 L -151 -186.00300598144528 L -180.95599365234375 -186.00300598144528 L -180.95599365234375 -182.99999999999997 L -180.95599365234375 -182.99800109863278 L -151 -182.99800109863278 L -150.95899963378906 -182.99800109863278 L -150.95899963378906 -162.99999999999997 L -151 -162.99999999999997 L -267.9570007324219 -162.99999999999997 L -270.9590148925781 -162.99999999999997 L -270.9590148925781 -170.99800109863278 L -267.9570007324219 -170.99800109863278 L -267.9570007324219 -182.99800109863278 L -267.9570007324219 -182.99999999999997 L -267.9570007324219 -186.00300598144528 L -267.9570007324219 -211.00300598144526 L -270.9590148925781 -211.00300598144526 L -270.9590148925781 -238.99800109863276 L -270.9590148925781 -238.99999999999994 L -270.9590148925781 -242.00300598144526 L -270.9590148925781 -250.99800109863276 L -267.9570007324219 -250.99800109863276 L -267.9570007324219 -291.0029907226562 L -270.9590148925781 -291.0029907226562 L -270.9590148925781 -294.9979858398437 L -270.9590148925781 -294.99999999999994 L -270.9590148925781 -298.0029907226562 L -270.9590148925781 -330.9979858398437 L -267.9570007324219 -330.9979858398437 L -267.9570007324219 -347.9979858398437 L -267.9570007324219 -350.99999999999994 L -267.9570007324219 -351.0029907226562 L -267.9570007324219 -370.99999999999994 L -210.96200561523438 -370.99999999999994 L -210.96200561523438 -367.9979858398437 L -151 -367.9979858398437 L -150.95899963378906 -367.9979858398437 L -150.95899963378906 -351.0029907226562 M -273.99798583984375 81.99999999999999 L -271 81.99999999999999 L -244 81.99999999999999 L -244 98.66400146484372 L -271 98.66400146484372 L -273.99798583984375 98.66400146484372 L -277 98.66400146484372 L -303.9989929199219 98.66400146484372 L -334.0010070800781 98.66400146484372 L -334.00299072265625 98.66400146484372 L -334.00299072265625 132.00300598144528 L -277 132.00300598144528 L -271 132.00300598144528 L -244 132.00300598144528 L -244 176.4420013427734 L -271 176.4420013427734 L -277 176.4420013427734 L -334.00299072265625 176.4420013427734 L -334.00299072265625 209.77799987792963 L -303.99798583984375 209.77799987792963 L -277 209.77799987792963 L -271 209.77799987792963 L -244 209.77799987792963 L -244 226.44200134277338 L -244 226.44400024414057 L -271 226.44400024414057 L -277 226.44400024414057 L -334.00299072265625 226.44400024414057 L -334.00299072265625 259.7799987792968 L -277 259.7799987792968 L -271 259.7799987792968 L -244 259.7799987792968 L -244 304.22000122070307 L -271 304.22000122070307 L -277 304.22000122070307 L -334.00299072265625 304.22000122070307 L -334.00299072265625 337.5559997558593 L -277 337.5559997558593 L -271 337.5559997558593 L -244 337.5559997558593 L -244 337.55801391601557 L -244 354.2219848632812 L -271 354.2219848632812 L -277 354.2219848632812 L -303.99798583984375 354.2219848632812 L -334.00299072265625 354.2219848632812 L -334.00299072265625 387.5580139160155 L -277 387.5580139160155 L -271 387.5580139160155 L -244 387.5580139160155 L -244 431.99798583984364 L -271 431.99798583984364 L -277 431.99798583984364 L -334.00299072265625 431.99798583984364 L -334.00299072265625 465.33599853515614 L -334.0010070800781 465.33599853515614 L -303.9989929199219 465.33599853515614 L -277 465.33599853515614 L -273.99798583984375 465.33599853515614 L -271 465.33599853515614 L -244 465.33599853515614 L -244 481.9999999999999 L -271 481.9999999999999 L -273.99798583984375 481.9999999999999 L -273.99798583984375 478.66400146484364 L -277 478.66400146484364 L -303.9989929199219 478.66400146484364 L -303.9989929199219 481.9999999999999 L -334.0010070800781 481.9999999999999 L -334.0010070800781 478.66400146484364 L -334.00299072265625 478.66400146484364 L -360.99798583984375 478.66400146484364 L -364 478.66400146484364 L -364 478.0209960937499 L -360.99798583984375 478.0209960937499 L -360.99798583984375 442.3489990234374 L -364 442.3489990234374 L -364 382.35400390624994 L -360.99798583984375 382.35400390624994 L -360.99798583984375 354.2219848632812 L -360.99798583984375 347.55801391601557 L -334.00299072265625 347.55801391601557 L -303.99798583984375 347.55801391601557 L -303.99798583984375 344.22000122070307 L -334.00299072265625 344.22000122070307 L -360.99798583984375 344.22000122070307 L -360.99798583984375 322.34899902343744 L -364 322.34899902343744 L -364 262.35400390624994 L -360.99798583984375 262.35400390624994 L -360.99798583984375 219.77999877929682 L -334.00299072265625 219.77999877929682 L -303.99798583984375 219.77999877929682 L -303.99798583984375 216.44200134277338 L -334.00299072265625 216.44200134277338 L -360.99798583984375 216.44200134277338 L -360.99798583984375 209.77799987792963 L -360.99798583984375 202.34899902343744 L -364 202.34899902343744 L -364 142.00300598144528 L -360.99798583984375 142.00300598144528 L -360.99798583984375 85.33599853515624 L -334.00299072265625 85.33599853515624 L -334.0010070800781 85.33599853515624 L -334.0010070800781 81.99999999999999 L -303.9989929199219 81.99999999999999 L -303.9989929199219 85.33599853515624 L -277 85.33599853515624 L -273.99798583984375 85.33599853515624 L -273.99798583984375 81.99999999999999 M -496 377.35400390624994 L -492.99798583984375 377.35400390624994 L -492.99798583984375 349.2219848632812 L -492.99798583984375 342.55801391601557 L -485 342.55801391601557 L -466.00299072265625 342.55801391601557 L -435.99798583984375 342.55801391601557 L -435.99798583984375 339.22000122070307 L -466.00299072265625 339.22000122070307 L -485 339.22000122070307 L -492.99798583984375 339.22000122070307 L -492.99798583984375 317.34899902343744 L -496 317.34899902343744 L -496 257.35400390624994 L -492.99798583984375 257.35400390624994 L -492.99798583984375 214.77999877929682 L -485 214.77999877929682 L -466.00299072265625 214.77999877929682 L -435.99798583984375 214.77999877929682 L -435.99798583984375 211.44200134277338 L -466.00299072265625 211.44200134277338 L -485 211.44200134277338 L -492.99798583984375 211.44200134277338 L -492.99798583984375 204.77799987792963 L -492.99798583984375 197.34899902343744 L -496 197.34899902343744 L -496 137.00300598144528 L -492.99798583984375 137.00300598144528 L -492.99798583984375 80.33599853515624 L -485 80.33599853515624 L -466.00299072265625 80.33599853515624 L -466.0010070800781 80.33599853515624 L -466.0010070800781 76.99999999999999 L -435.9989929199219 76.99999999999999 L -435.9989929199219 80.33599853515624 L -405.99798583984375 80.33599853515624 L -405.99798583984375 76.99999999999999 L -376 76.99999999999999 L -376 93.66400146484374 L -405.99798583984375 93.66400146484374 L -435.9989929199219 93.66400146484374 L -466.0010070800781 93.66400146484374 L -466.00299072265625 93.66400146484374 L -466.00299072265625 127.00299835205075 L -376 127.00299835205075 L -376 171.4420013427734 L -466.00299072265625 171.4420013427734 L -466.00299072265625 204.77799987792963 L -435.99798583984375 204.77799987792963 L -376 204.77799987792963 L -376 221.44200134277338 L -376 221.44400024414057 L -466.00299072265625 221.44400024414057 L -466.00299072265625 254.77999877929682 L -376 254.77999877929682 L -376 299.22000122070307 L -466.00299072265625 299.22000122070307 L -466.00299072265625 332.5559997558593 L -376 332.5559997558593 L -376 332.55801391601557 L -376 349.2219848632812 L -435.99798583984375 349.2219848632812 L -466.00299072265625 349.2219848632812 L -466.00299072265625 382.55801391601557 L -376 382.55801391601557 L -376 426.99798583984364 L -466.00299072265625 426.99798583984364 L -466.00299072265625 460.33599853515614 L -466.0010070800781 460.33599853515614 L -435.9989929199219 460.33599853515614 L -405.99798583984375 460.33599853515614 L -376 460.33599853515614 L -376 476.9999999999999 L -405.99798583984375 476.9999999999999 L -405.99798583984375 473.66400146484364 L -435.9989929199219 473.66400146484364 L -435.9989929199219 476.9999999999999 L -466.0010070800781 476.9999999999999 L -466.0010070800781 473.66400146484364 L -466.00299072265625 473.66400146484364 L -485 473.66400146484364 L -492.99798583984375 473.66400146484364 L -496 473.66400146484364 L -496 473.0209960937499 L -492.99798583984375 473.0209960937499 L -492.99798583984375 437.3489990234374 L -496 437.3489990234374 L -496 377.35400390624994 M -486 -93.99999999999999 L -486 -213.99999999999994 L -485 -213.99999999999994 L -478.00299072265625 -213.99999999999994 L -478.00299072265625 -210.99800109863276 L -466 -210.99800109863276 L -437.99798583984375 -210.99800109863276 L -437.99798583984375 -213.99999999999994 L -433.5010070800781 -213.99999999999994 L -410 -213.99999999999994 L -409.5010070800781 -213.99999999999994 L -398.00299072265625 -213.99999999999994 L -398.00299072265625 -210.99800109863276 L -357.99798583984375 -210.99800109863276 L -357.99798583984375 -213.99999999999994 L -354 -213.99999999999994 L -318.00299072265625 -213.99999999999994 L -318.00299072265625 -210.99800109863276 L -298 -210.99800109863276 L -278 -210.99800109863276 L -278 -154.00300598144528 L -281.00299072265625 -154.00300598144528 L -281.00299072265625 -93.99999999999999 L -297.99798583984375 -93.99999999999999 L -297.99798583984375 -154.00300598144528 L -298 -154.00300598144528 L -301.00299072265625 -154.00300598144528 L -301.00299072265625 -93.99999999999999 L -350.99798583984375 -93.99999999999999 L -350.99798583984375 -154.00300598144528 L -354 -154.00300598144528 L -354.00299072265625 -154.00300598144528 L -354.00299072265625 -93.99999999999999 L -406.99798583984375 -93.99999999999999 L -406.99798583984375 -154.00300598144528 L -410 -154.00300598144528 L -410.00299072265625 -154.00300598144528 L -410.00299072265625 -93.99999999999999 L -462.99798583984375 -93.99999999999999 L -462.99798583984375 -154.00300598144528 L -466 -154.00300598144528 L -466.00299072265625 -154.00300598144528 L -466.00299072265625 -93.99999999999999 L -485 -93.99999999999999 L -486 -93.99999999999999 M -424.27581787109375 -336.57568359374994 L -425.4679870605469 -335.97167968749994 L -425.46844482421875 -335.97122192382807 L -425.9840087890625 -335.4580688476562 L -426.9604187011719 -334.4861755371093 L -427.9020080566406 -333.54931640624994 L -427.9023742675781 -333.54858398437494 L -428.8642578125 -331.67102050781244 L -429.4649963378906 -330.4980163574218 L -429.91314697265625 -327.6799926757812 L -430.00299072265625 -327.11499023437494 L -429.6686096191406 -325.01235961914057 L -429.4649963378906 -323.73233032226557 L -428.48919677734375 -321.8275756835937 L -427.9020080566406 -320.68103027343744 L -427.901611328125 -320.6806335449218 L -426.3766174316406 -319.16333007812494 L -425.9840087890625 -318.7726745605468 L -425.4679870605469 -318.25927734374994 L -423.5411682128906 -317.2820739746093 L -422.400634765625 -316.7041931152343 L -420.2618103027344 -316.3675231933593 L -419.0010070800781 -316.1686401367187 L -418.9996337890625 -316.16885375976557 L -417.7919921875 -316.3589477539062 L -416.8625793457031 -316.50524902343744 L -415.60101318359375 -316.7041931152343 L -413.67498779296875 -317.6809692382812 L -412.53363037109375 -318.25927734374994 L -412.53253173828125 -318.26037597656244 L -411.0091247558594 -319.7754821777343 L -410.0989990234375 -320.68103027343744 L -409.6000061035156 -321.65567016601557 L -409.5010070800781 -321.84902954101557 L -409.5010070800781 -327.6799926757812 L -409.5010070800781 -332.3809204101562 L -409.6000061035156 -332.57434082031244 L -410.0989990234375 -333.54931640624994 L -410.0993957519531 -333.54971313476557 L -411.591064453125 -335.03384399414057 L -412.5335998535156 -335.97167968749994 L -412.5336608886719 -335.97167968749994 L -414.4076843261719 -336.92153930664057 L -415.60101318359375 -337.52612304687494 L -417.6759033203125 -337.8527221679687 L -417.7919921875 -337.8710327148437 L -419.0010070800781 -338.0617065429687 L -419.0022277832031 -338.0614929199218 L -421.0762634277344 -337.7350463867187 L -422.4006042480469 -337.52612304687494 L -424.27581787109375 -336.57568359374994 M -423.4809875488281 -340.8352661132812 L -419.0010070800781 -341.54150390624994 L -417.7919921875 -341.35095214843744 L -414.5199890136719 -340.8352661132812 L -410.4779968261719 -338.7866821289062 L -409.9627685546875 -338.2739868164062 L -409.6000061035156 -337.9130554199218 L -409.5010070800781 -337.8145446777343 L -408.8405456542969 -337.15737915039057 L -404.5010070800781 -337.15737915039057 L -313 -337.15737915039057 L -311.4055480957031 -337.15737915039057 L -311.2959899902344 -337.15737915039057 L -309.43865966796875 -337.15737915039057 L -308.676513671875 -337.15737915039057 L -308.5010070800781 -337.33203124999994 L -307.7602844238281 -338.0690307617187 L -307.5542907714844 -338.2739868164062 L -307.02301025390625 -338.80264282226557 L -303.10400390625 -340.7889099121093 L -302.9809875488281 -340.8512573242187 L -298.5 -341.55749511718744 L -294.9119873046875 -340.9920043945312 L -294.0982360839844 -340.8637390136718 L -294.02044677734375 -340.85147094726557 L -294.0190124511719 -340.8512573242187 L -290.0641784667969 -338.84680175781244 L -289.97698974609375 -338.80264282226557 L -289.4457092285156 -338.2739868164062 L -287.49798583984375 -336.3360290527343 L -286.8580627441406 -335.6993103027343 L -286.77099609375 -335.6126403808593 L -286.76904296875 -335.6106567382812 L -284.783203125 -331.73233032226557 L -284.71002197265625 -331.58947753906244 L -284.7099914550781 -331.5894470214843 L -284.0874328613281 -327.6799926757812 L -284.03155517578125 -327.3292846679687 L -284 -327.1310424804687 L -284.7099914550781 -322.6726989746093 L -286.64361572265625 -318.8963317871093 L -286.7680969238281 -318.6533813476562 L -286.7690734863281 -318.65148925781244 L -289.7613525390625 -315.6741333007812 L -289.9768981933594 -315.45962524414057 L -289.97698974609375 -315.45950317382807 L -293.7307434082031 -313.55700683593744 L -294.0190124511719 -313.41088867187494 L -294.9119873046875 -313.27014160156244 L -298.1725158691406 -312.75625610351557 L -298.49981689453125 -312.7046813964843 L -298.5 -312.7046508789062 L -302.65966796875 -313.36026000976557 L -302.9809875488281 -313.41088867187494 L -303.10400390625 -313.4732360839843 L -306.7483215332031 -315.3202819824218 L -307.02301025390625 -315.45950317382807 L -307.6064147949219 -316.0400085449218 L -308.5010070800781 -316.9301147460937 L -308.726318359375 -317.15432739257807 L -310.3668518066406 -317.15432739257807 L -311.2959899902344 -317.15432739257807 L -313 -317.15432739257807 L -404.5010070800781 -317.15432739257807 L -406.0850524902344 -317.15432739257807 L -408.0287780761719 -317.15432739257807 L -408.75860595703125 -317.15432739257807 L -409.5010070800781 -316.41564941406244 L -409.6000061035156 -316.31713867187494 L -409.8785400390625 -316.0400085449218 L -410.4779968261719 -315.44351196289057 L -414.5199890136719 -313.39492797851557 L -417.7919921875 -312.8792419433593 L -419.0010070800781 -312.6886901855468 L -423.47979736328125 -313.3947448730468 L -423.4809875488281 -313.39492797851557 L -425.9840087890625 -314.6635131835937 L -426.8298034667969 -315.09219360351557 L -427.5231628417969 -315.44351196289057 L -428.1226501464844 -316.0400085449218 L -430.00299072265625 -317.9109802246093 L -430.2001037597656 -318.10708618164057 L -430.7309875488281 -318.63549804687494 L -432.7909851074219 -322.65673828124994 L -432.7909851074219 -322.65676879882807 L -433.3952941894531 -326.45129394531244 L -433.5010070800781 -327.1150817871093 L -433.5010070800781 -327.11511230468744 L -433.4110412597656 -327.6799926757812 L -432.8906555175781 -330.9476013183593 L -432.7909851074219 -331.5734252929687 L -430.7319030761719 -335.59292602539057 L -430.7309875488281 -335.5946960449218 L -427.9255676269531 -338.38610839843744 L -427.52313232421875 -338.7866821289062 L -425.9840087890625 -339.5667419433593 L -423.97137451171875 -340.58679199218744 L -423.4809875488281 -340.8352661132812 M -424.27581787109375 -305.57568359374994 L -425.4679870605469 -304.97167968749994 L -425.46844482421875 -304.97122192382807 L -425.9840087890625 -304.4580688476562 L -426.9604187011719 -303.4861755371093 L -427.9020080566406 -302.54931640624994 L -427.9023742675781 -302.54858398437494 L -428.8642578125 -300.67102050781244 L -429.4649963378906 -299.4980163574218 L -430.00299072265625 -296.11499023437494 L -429.81170654296875 -294.91198730468744 L -429.6686096191406 -294.01235961914057 L -429.4649963378906 -292.73233032226557 L -428.48919677734375 -290.8275756835937 L -427.9020080566406 -289.68103027343744 L -427.901611328125 -289.6806335449218 L -426.3766174316406 -288.16333007812494 L -425.9840087890625 -287.7726745605468 L -425.4679870605469 -287.25927734374994 L -423.5411682128906 -286.2820739746093 L -422.400634765625 -285.7041931152343 L -420.2618103027344 -285.3675231933593 L -419.0010070800781 -285.1686401367187 L -418.9996337890625 -285.16885375976557 L -417.7919921875 -285.3589477539062 L -416.8625793457031 -285.50524902343744 L -415.60101318359375 -285.7041931152343 L -413.67498779296875 -286.6809692382812 L -412.53363037109375 -287.25927734374994 L -412.53253173828125 -287.26037597656244 L -411.0091247558594 -288.7754821777343 L -410.0989990234375 -289.68103027343744 L -409.6000061035156 -290.65567016601557 L -409.5010070800781 -290.84902954101557 L -409.5010070800781 -294.91198730468744 L -409.5010070800781 -301.3809204101562 L -409.6000061035156 -301.57434082031244 L -410.0989990234375 -302.54931640624994 L -410.0993957519531 -302.54971313476557 L -411.591064453125 -304.03384399414057 L -412.5335998535156 -304.97167968749994 L -412.5336608886719 -304.97167968749994 L -414.4076843261719 -305.92153930664057 L -415.60101318359375 -306.52612304687494 L -417.6759033203125 -306.8527221679687 L -417.7919921875 -306.8710327148437 L -419.0010070800781 -307.0617065429687 L -419.0022277832031 -307.0614929199218 L -421.0762634277344 -306.7350463867187 L -422.4006042480469 -306.52612304687494 L -424.27581787109375 -305.57568359374994 M -423.4809875488281 -309.8352661132812 L -419.0010070800781 -310.54150390624994 L -417.7919921875 -310.35095214843744 L -414.5199890136719 -309.8352661132812 L -410.4779968261719 -307.7866821289062 L -409.9627685546875 -307.2739868164062 L -409.6000061035156 -306.9130554199218 L -409.5010070800781 -306.8145446777343 L -408.8405456542969 -306.15737915039057 L -404.5010070800781 -306.15737915039057 L -313 -306.15737915039057 L -311.4055480957031 -306.15737915039057 L -311.2959899902344 -306.15737915039057 L -309.43865966796875 -306.15737915039057 L -308.676513671875 -306.15737915039057 L -308.5010070800781 -306.33203124999994 L -307.7602844238281 -307.0690307617187 L -307.5542907714844 -307.2739868164062 L -307.02301025390625 -307.80264282226557 L -303.10400390625 -309.7889099121093 L -302.9809875488281 -309.8512573242187 L -298.5 -310.55749511718744 L -294.9119873046875 -309.9920043945312 L -294.0982360839844 -309.8637390136718 L -294.02044677734375 -309.85147094726557 L -294.0190124511719 -309.8512573242187 L -290.0641784667969 -307.84680175781244 L -289.97698974609375 -307.80264282226557 L -289.4457092285156 -307.2739868164062 L -287.49798583984375 -305.3360290527343 L -286.8580627441406 -304.6993103027343 L -286.77099609375 -304.6126403808593 L -286.76904296875 -304.6106567382812 L -284.783203125 -300.73233032226557 L -284.71002197265625 -300.58947753906244 L -284.7099914550781 -300.5894470214843 L -284.03155517578125 -296.3292846679687 L -284 -296.1310424804687 L -284.1941223144531 -294.91198730468744 L -284.7099914550781 -291.6726989746093 L -286.64361572265625 -287.8963317871093 L -286.7680969238281 -287.6533813476562 L -286.7690734863281 -287.65148925781244 L -289.7613525390625 -284.6741333007812 L -289.9768981933594 -284.45962524414057 L -289.97698974609375 -284.45950317382807 L -293.7307434082031 -282.55700683593744 L -294.0190124511719 -282.41088867187494 L -294.9119873046875 -282.27014160156244 L -298.1725158691406 -281.75625610351557 L -298.49981689453125 -281.7046813964843 L -298.5 -281.7046508789062 L -302.65966796875 -282.36026000976557 L -302.9809875488281 -282.41088867187494 L -306.7483215332031 -284.3202819824218 L -307.02301025390625 -284.45950317382807 L -307.6064147949219 -285.0400085449218 L -308.5010070800781 -285.9301147460937 L -308.726318359375 -286.15432739257807 L -310.3668518066406 -286.15432739257807 L -311.2959899902344 -286.15432739257807 L -313 -286.15432739257807 L -404.5010070800781 -286.15432739257807 L -406.0850524902344 -286.15432739257807 L -408.0287780761719 -286.15432739257807 L -408.75860595703125 -286.15432739257807 L -409.5010070800781 -285.41564941406244 L -409.6000061035156 -285.31713867187494 L -409.8785400390625 -285.0400085449218 L -410.4779968261719 -284.44351196289057 L -414.5199890136719 -282.39492797851557 L -417.7919921875 -281.8792419433593 L -419.0010070800781 -281.6886901855468 L -423.47979736328125 -282.3947448730468 L -423.4809875488281 -282.39492797851557 L -425.9840087890625 -283.6635131835937 L -426.8298034667969 -284.09219360351557 L -427.5231628417969 -284.44351196289057 L -428.1226501464844 -285.0400085449218 L -430.00299072265625 -286.9109802246093 L -430.2001037597656 -287.10708618164057 L -430.7309875488281 -287.63549804687494 L -432.7909851074219 -291.65673828124994 L -432.7909851074219 -291.65676879882807 L -433.30938720703125 -294.91198730468744 L -433.3952941894531 -295.45129394531244 L -433.5010070800781 -296.1150817871093 L -433.5010070800781 -296.11511230468744 L -432.8906555175781 -299.9476013183593 L -432.7909851074219 -300.5734252929687 L -430.7319030761719 -304.59292602539057 L -430.7309875488281 -304.5946960449218 L -427.9255676269531 -307.38610839843744 L -427.52313232421875 -307.7866821289062 L -425.9840087890625 -308.5667419433593 L -423.97137451171875 -309.58679199218744 L -423.4809875488281 -309.8352661132812 M -423.4809875488281 -278.8352661132812 L -419.0010070800781 -279.54150390624994 L -414.5199890136719 -278.8352661132812 L -413.9137268066406 -278.5280151367187 L -410.4779968261719 -276.7866821289062 L -409.9627685546875 -276.2739868164062 L -409.6000061035156 -275.9130554199218 L -409.5010070800781 -275.8145446777343 L -408.8405456542969 -275.15737915039057 L -404.5010070800781 -275.15737915039057 L -313 -275.15737915039057 L -311.2959899902344 -275.15737915039057 L -309.43865966796875 -275.15737915039057 L -308.676513671875 -275.15737915039057 L -308.5010070800781 -275.33203124999994 L -307.7602844238281 -276.0690307617187 L -307.5542907714844 -276.2739868164062 L -307.02301025390625 -276.80264282226557 L -303.6188049316406 -278.5280151367187 L -302.9809875488281 -278.8512573242187 L -298.5 -279.55749511718744 L -294.9119873046875 -278.9920043945312 L -294.0982360839844 -278.8637390136718 L -294.02044677734375 -278.85147094726557 L -294.0190124511719 -278.8512573242187 L -290.0641784667969 -276.84680175781244 L -289.97698974609375 -276.80264282226557 L -289.4457092285156 -276.2739868164062 L -287.49798583984375 -274.3360290527343 L -286.8580627441406 -273.6993103027343 L -286.77099609375 -273.6126403808593 L -286.76904296875 -273.6106567382812 L -284.783203125 -269.73233032226557 L -284.71002197265625 -269.58947753906244 L -284.7099914550781 -269.5894470214843 L -284.03155517578125 -265.3292846679687 L -284 -265.1310424804687 L -284.4757080078125 -262.1440124511718 L -284.7099914550781 -260.6726989746093 L -286.64361572265625 -256.8963317871093 L -286.7680969238281 -256.6533813476562 L -286.7690734863281 -256.65148925781244 L -289.7613525390625 -253.6741333007812 L -289.9768981933594 -253.45962524414057 L -289.97698974609375 -253.45951843261713 L -293.7307434082031 -251.55700683593744 L -294.0190124511719 -251.410903930664 L -294.9119873046875 -251.2701568603515 L -298.1725158691406 -250.75627136230463 L -298.49981689453125 -250.70468139648432 L -298.5 -250.70466613769526 L -302.65966796875 -251.36026000976557 L -302.9809875488281 -251.410903930664 L -306.7483215332031 -253.32029724121088 L -307.02301025390625 -253.45951843261713 L -307.6064147949219 -254.03999328613276 L -308.5010070800781 -254.93013000488276 L -308.726318359375 -255.15432739257807 L -310.3668518066406 -255.15432739257807 L -313 -255.15432739257807 L -404.5010070800781 -255.15432739257807 L -406.0850524902344 -255.15432739257807 L -408.0287780761719 -255.15432739257807 L -408.75860595703125 -255.15432739257807 L -409.5010070800781 -254.41564941406244 L -409.6000061035156 -254.31713867187494 L -409.8785400390625 -254.03999328613276 L -410.4779968261719 -253.44352722167963 L -414.5199890136719 -251.3949127197265 L -419.0010070800781 -250.68870544433588 L -423.47979736328125 -251.39472961425776 L -423.4809875488281 -251.3949127197265 L -425.9840087890625 -252.6635131835937 L -426.8298034667969 -253.09219360351557 L -427.5231628417969 -253.44352722167963 L -428.1226501464844 -254.03999328613276 L -430.00299072265625 -255.91098022460932 L -430.2001037597656 -256.10708618164057 L -430.7309875488281 -256.63549804687494 L -432.7909851074219 -260.65673828124994 L -432.7909851074219 -260.65676879882807 L -433.02783203125 -262.1440124511718 L -433.3952941894531 -264.45129394531244 L -433.5010070800781 -265.1150817871093 L -433.5010070800781 -265.11511230468744 L -432.8906555175781 -268.9476013183593 L -432.7909851074219 -269.5734252929687 L -430.7319030761719 -273.59292602539057 L -430.7309875488281 -273.5946960449218 L -427.9255676269531 -276.38610839843744 L -427.52313232421875 -276.7866821289062 L -425.9840087890625 -277.5667419433593 L -424.08740234375 -278.5280151367187 L -423.97137451171875 -278.58679199218744 L -423.4809875488281 -278.8352661132812 M -424.27581787109375 -274.57568359374994 L -425.4679870605469 -273.97167968749994 L -425.46844482421875 -273.97122192382807 L -425.9840087890625 -273.4580688476562 L -426.9604187011719 -272.4861755371093 L -427.9020080566406 -271.54931640624994 L -427.9023742675781 -271.54858398437494 L -428.8642578125 -269.67102050781244 L -429.4649963378906 -268.4980163574218 L -430.00299072265625 -265.11499023437494 L -429.6686096191406 -263.01235961914057 L -429.5304870605469 -262.1440124511718 L -429.4649963378906 -261.73233032226557 L -428.48919677734375 -259.8275756835937 L -427.9020080566406 -258.68103027343744 L -427.901611328125 -258.6806335449218 L -426.3766174316406 -257.16333007812494 L -425.9840087890625 -256.7726745605468 L -425.4679870605469 -256.25927734374994 L -423.5411682128906 -255.28207397460932 L -422.400634765625 -254.70381164550776 L -420.2618103027344 -254.36715698242182 L -419.0010070800781 -254.16865539550776 L -419.0008239746094 -254.16868591308588 L -417.7919921875 -254.3589477539062 L -415.60101318359375 -254.70381164550776 L -413.67498779296875 -255.6806030273437 L -412.53363037109375 -256.25927734374994 L -412.5332946777344 -256.2596130371093 L -411.0091247558594 -257.7754821777343 L -410.0989990234375 -258.68103027343744 L -409.6000061035156 -259.65567016601557 L -409.5010070800781 -259.84902954101557 L -409.5010070800781 -262.1440124511718 L -409.5010070800781 -270.3809204101562 L -409.6000061035156 -270.57434082031244 L -410.0989990234375 -271.54931640624994 L -410.0993957519531 -271.54971313476557 L -411.591064453125 -273.03384399414057 L -412.5335998535156 -273.97167968749994 L -412.5336608886719 -273.97167968749994 L -414.4076843261719 -274.92153930664057 L -415.60101318359375 -275.52612304687494 L -417.6759033203125 -275.8527221679687 L -417.7919921875 -275.8710327148437 L -419.0010070800781 -276.0617065429687 L -419.0022277832031 -276.0614929199218 L -421.0762634277344 -275.7350463867187 L -422.4006042480469 -275.52612304687494 L -424.27581787109375 -274.57568359374994 M -423.2721862792969 -248.25778198242182 L -423.27197265625 -248.25781249999994 L -419.55841064453125 -248.78318786621088 L -418.79254150390625 -248.89152526855463 L -415.115478515625 -248.24829101562494 L -414.3362731933594 -248.11198425292963 L -410.3392028808594 -245.99507141113276 L -410.111328125 -245.75999450683588 L -409.6000061035156 -245.23249816894526 L -409.5010070800781 -245.13037109374994 L -408.9930725097656 -244.6063842773437 L -408.10205078125 -244.6063842773437 L -406.0447998046875 -244.6063842773437 L -404.5010070800781 -244.6063842773437 L -313 -244.6063842773437 L -311.2959899902344 -244.6063842773437 L -308.6504211425781 -244.6063842773437 L -308.5010070800781 -244.75076293945307 L -307.4565734863281 -245.75999450683588 L -306.8341369628906 -246.36145019531244 L -303.52337646484375 -247.97831726074213 L -302.7695007324219 -248.34648132324213 L -299.14703369140625 -248.85896301269526 L -298.2898254394531 -248.98020935058588 L -294.9119873046875 -248.38932800292963 L -293.8335266113281 -248.20066833496088 L -289.8364562988281 -246.08377075195307 L -289.5226135253906 -245.75999450683588 L -289.11309814453125 -245.3375396728515 L -287.3840026855469 -243.55381774902338 L -287.3038635253906 -243.47116088867182 L -286.6898498535156 -242.83750915527338 L -285.0824890136719 -239.55451965332026 L -284.7030334472656 -238.77990722656244 L -284.70294189453125 -238.77932739257807 L -284.18572998046875 -235.13284301757807 L -284.068603515625 -234.3070220947265 L -284.71148681640625 -230.64245605468744 L -284.8494567871094 -229.85693359374994 L -285.1050109863281 -229.37600708007807 L -286.61492919921875 -226.53437805175776 L -286.9700622558594 -225.86575317382807 L -286.97039794921875 -225.8654174804687 L -287.3840026855469 -225.4657592773437 L -289.34796142578125 -223.56799316406244 L -290.2217712402344 -222.72361755371088 L -294.2864074707031 -220.73864746093744 L -294.9119873046875 -220.65013122558588 L -298.7658996582031 -220.1048736572265 L -302.59234619140625 -220.77427673339838 L -303.2223205566406 -220.88444519042963 L -303.222412109375 -220.88449096679682 L -306.6591491699219 -222.70378112792963 L -307.2193603515625 -223.00035095214838 L -307.7696228027344 -223.56799316406244 L -308.5010070800781 -224.32247924804682 L -308.77325439453125 -224.60331726074213 L -309.5613098144531 -224.60331726074213 L -313 -224.60331726074213 L -404.5010070800781 -224.60331726074213 L -406.69390869140625 -224.60331726074213 L -408.6874694824219 -224.60331726074213 L -409.5010070800781 -223.8171997070312 L -410.27496337890625 -223.06930541992182 L -410.7244873046875 -222.6349487304687 L -410.7244873046875 -222.6349487304687 L -414.25958251953125 -220.90853881835932 L -414.78912353515625 -220.64993286132807 L -418.7114562988281 -220.0950317382812 L -419.26861572265625 -220.01618957519526 L -419.2686462402344 -220.01620483398432 L -423.72491455078125 -220.79573059082026 L -424.3070068359375 -221.10386657714838 L -425.9840087890625 -221.99162292480463 L -427.72198486328125 -222.911636352539 L -430.4862976074219 -225.76425170898432 L -430.867919921875 -226.15791320800776 L -430.8680419921875 -226.15817260742182 L -432.44390869140625 -229.37600708007807 L -432.6060485839844 -229.70706176757807 L -432.85540771484375 -230.21652221679682 L -433.4061584472656 -234.099380493164 L -433.4898376464844 -234.68940734863276 L -432.8176574707031 -238.51599121093744 L -432.7082824707031 -239.13949584960932 L -432.70806884765625 -239.139907836914 L -430.9038391113281 -242.5370025634765 L -430.5884094238281 -243.13066101074213 L -427.8477783203125 -245.77890014648432 L -427.336669921875 -246.2727661132812 L -427.336669921875 -246.27278137207026 L -426.5320129394531 -246.66574096679682 L -425.9840087890625 -246.933364868164 L -423.9428405761719 -247.930191040039 L -423.2721862792969 -248.25778198242182 M -416.4510803222656 -239.75546264648432 L -416.19708251953125 -239.55747985839838 L -416.1328125 -239.53402709960932 L -415.8300476074219 -239.4235229492187 L -415.7439880371094 -239.420669555664 L -415.4400329589844 -239.41056823730463 L -415.06427001953125 -239.51757812499994 L -415.06396484375 -239.51766967773432 L -415.0071716308594 -239.55599975585932 L -414.7400817871094 -239.73574829101557 L -414.6976318359375 -239.78982543945307 L -414.50018310546875 -240.0424194335937 L -414.4998474121094 -240.04284667968744 L -414.47637939453125 -240.1076049804687 L -414.365966796875 -240.40994262695307 L -414.36346435546875 -240.4786987304687 L -414.3527526855469 -240.7984771728515 L -414.35272216796875 -240.79902648925776 L -414.371826171875 -240.8654174804687 L -414.4598693847656 -241.17407226562494 L -414.4985046386719 -241.23130798339838 L -414.6786804199219 -241.4971313476562 L -414.7332763671875 -241.5396881103515 L -414.892822265625 -241.6640014648437 L -414.98663330078125 -241.73710632324213 L -414.9866638183594 -241.73713684082026 L -415.0517272949219 -241.7608795166015 L -415.3536682128906 -241.87112426757807 L -415.74371337890625 -241.88407897949213 L -415.810302734375 -241.86511230468744 L -416.1186218261719 -241.77706909179682 L -416.1189270019531 -241.7769927978515 L -416.176025390625 -241.73843383789057 L -416.2866516113281 -241.6640014648437 L -416.44281005859375 -241.5588989257812 L -416.6838684082031 -241.25180053710932 L -416.8169250488281 -240.8847045898437 L -416.83099365234375 -240.49563598632807 L -416.83099365234375 -240.495620727539 L -416.8120422363281 -240.42977905273432 L -416.7230529785156 -240.12052917480463 L -416.6848449707031 -240.06391906738276 L -416.50506591796875 -239.7975463867187 L -416.50506591796875 -239.79753112792963 L -416.4510803222656 -239.75546264648432 M -424.1864929199219 -227.3882446289062 L -424.18865966796875 -227.32800292968744 L -424.19195556640625 -227.23692321777338 L -424.12652587890625 -227.00744628906244 L -424.0851135253906 -226.86349487304682 L -424.0846252441406 -226.861831665039 L -423.95068359375 -226.66426086425776 L -423.86602783203125 -226.53880310058588 L -423.6777038574219 -226.39201354980463 L -423.55804443359375 -226.29878234863276 L -423.1910095214844 -226.1658325195312 L -422.8016052246094 -226.15190124511713 L -422.8009948730469 -226.151870727539 L -422.5714416503906 -226.21740722656244 L -422.425537109375 -226.25894165039057 L -422.2271423339844 -226.3924713134765 L -422.10186767578125 -226.47703552246088 L -421.9541931152344 -226.66577148437494 L -421.8608093261719 -226.78515624999994 L -421.7277526855469 -227.15124511718744 L -421.72137451171875 -227.32800292968744 L -421.71368408203125 -227.54133605957026 L -421.8216552734375 -227.91638183593744 L -422.03961181640625 -228.23942565917963 L -422.3476257324219 -228.4794311523437 L -422.7146301269531 -228.61242675781244 L -422.9539489746094 -228.6209869384765 L -423.1045837402344 -228.6263580322265 L -423.10467529296875 -228.6263580322265 L -423.3352966308594 -228.560073852539 L -423.480712890625 -228.51828002929682 L -423.67938232421875 -228.38459777832026 L -423.8030700683594 -228.30107116699213 L -423.80438232421875 -228.30020141601557 L -423.95147705078125 -228.11203002929682 L -424.0448303222656 -227.9931030273437 L -424.1269226074219 -227.76890563964838 L -424.1778259277344 -227.62887573242182 L -424.1784973144531 -227.6270141601562 L -424.1864929199219 -227.3882446289062 M -288.9256286621094 -332.25048828124994 L -289.5989990234375 -333.56530761718744 L -289.59942626953125 -333.5657348632812 L -290.9787292480469 -334.9386596679687 L -292.0329895019531 -335.9876098632812 L -293.7666015625 -336.86624145507807 L -294.9119873046875 -337.44677734374994 L -295.1000061035156 -337.5420837402343 L -295.1000671386719 -337.5420837402343 L -297.0187683105469 -337.8440856933593 L -298.5 -338.0776977539062 L -298.5013732910156 -338.0774841308593 L -300.4189758300781 -337.77563476562494 L -301.8999938964844 -337.5420837402343 L -303.10400390625 -336.9318542480468 L -303.6338806152344 -336.6632995605468 L -304.9670104980469 -335.9876098632812 L -306.347412109375 -334.6136169433593 L -307.4010009765625 -333.56530761718744 L -307.4014587402344 -333.56445312499994 L -308.2913513183594 -331.8273620605468 L -308.5010070800781 -331.41799926757807 L -308.5010070800781 -327.6799926757812 L -308.5010070800781 -322.8445434570312 L -308.0601806640625 -321.9840698242187 L -307.4010009765625 -320.6969604492187 L -307.40057373046875 -320.69653320312494 L -304.9670104980469 -318.2752380371093 L -303.18109130859375 -317.3694763183593 L -303.10400390625 -317.3303833007812 L -301.8999938964844 -316.7201538085937 L -299.9175109863281 -316.4081420898437 L -298.5 -316.18460083007807 L -298.49859619140625 -316.18481445312494 L -296.5174560546875 -316.49661254882807 L -295.1000061035156 -316.7201538085937 L -294.9119873046875 -316.8154907226562 L -293.3148193359375 -317.6255493164062 L -292.0329895019531 -318.2752380371093 L -292.0321350097656 -318.2760925292968 L -289.5989990234375 -320.6969604492187 L -288.6958312988281 -322.4599304199218 L -288.0360107421875 -323.74829101562494 L -287.72662353515625 -325.69363403320307 L -287.49798583984375 -327.1309204101562 L -287.498046875 -327.13110351562494 L -287.5853271484375 -327.6799926757812 L -288.0360107421875 -330.51394653320307 L -288.9256286621094 -332.25048828124994 M -287.498046875 -296.13110351562494 L -288.0360107421875 -299.51394653320307 L -288.9256286621094 -301.25048828124994 L -289.5989990234375 -302.56530761718744 L -289.59942626953125 -302.5657348632812 L -290.9787292480469 -303.9386596679687 L -292.0329895019531 -304.9876098632812 L -293.7666015625 -305.86624145507807 L -294.9119873046875 -306.44677734374994 L -295.1000061035156 -306.5420837402343 L -295.1000671386719 -306.5420837402343 L -297.0187683105469 -306.8440856933593 L -298.5 -307.0776977539062 L -298.5013732910156 -307.0774841308593 L -300.4189758300781 -306.77563476562494 L -301.8999938964844 -306.5420837402343 L -303.10400390625 -305.9318542480468 L -303.6338806152344 -305.6632995605468 L -304.9670104980469 -304.9876098632812 L -306.347412109375 -303.6136169433593 L -307.4010009765625 -302.56530761718744 L -307.4014587402344 -302.56445312499994 L -308.2913513183594 -300.8273620605468 L -308.5010070800781 -300.41799926757807 L -308.5010070800781 -294.91198730468744 L -308.5010070800781 -291.8445434570312 L -308.0601806640625 -290.9840698242187 L -307.4010009765625 -289.6969604492187 L -307.40057373046875 -289.69653320312494 L -304.9670104980469 -287.2752380371093 L -303.18109130859375 -286.3694763183593 L -303.10400390625 -286.3303833007812 L -301.8999938964844 -285.7201538085937 L -299.9175109863281 -285.4081420898437 L -298.5 -285.18460083007807 L -298.49859619140625 -285.18481445312494 L -296.5174560546875 -285.49661254882807 L -295.1000061035156 -285.7201538085937 L -294.9119873046875 -285.8154907226562 L -293.3148193359375 -286.6255493164062 L -292.0329895019531 -287.2752380371093 L -292.0321350097656 -287.2760925292968 L -289.5989990234375 -289.6969604492187 L -288.6958312988281 -291.4599304199218 L -288.0360107421875 -292.74829101562494 L -287.72662353515625 -294.69363403320307 L -287.69189453125 -294.91198730468744 L -287.49798583984375 -296.1309204101562 L -287.498046875 -296.13110351562494 M -287.498046875 -265.13110351562494 L -288.0360107421875 -268.51394653320307 L -288.9256286621094 -270.25048828124994 L -289.5989990234375 -271.56530761718744 L -289.59942626953125 -271.5657348632812 L -290.9787292480469 -272.9386596679687 L -292.0329895019531 -273.9876098632812 L -293.7666015625 -274.86624145507807 L -294.9119873046875 -275.44677734374994 L -295.1000061035156 -275.5420837402343 L -295.1000671386719 -275.5420837402343 L -297.0187683105469 -275.8440856933593 L -298.5 -276.0776977539062 L -298.5013732910156 -276.0774841308593 L -300.4189758300781 -275.77563476562494 L -301.8999938964844 -275.5420837402343 L -303.10400390625 -274.9318542480468 L -303.6338806152344 -274.6632995605468 L -304.9670104980469 -273.9876098632812 L -306.347412109375 -272.6136169433593 L -307.4010009765625 -271.56530761718744 L -307.4014587402344 -271.56445312499994 L -308.03076171875 -270.3359985351562 L -308.2913513183594 -269.8273620605468 L -308.5010070800781 -269.41799926757807 L -308.5010070800781 -262.1440124511718 L -308.5010070800781 -260.8445434570312 L -308.0601806640625 -259.9840698242187 L -307.4010009765625 -258.6969604492187 L -307.40057373046875 -258.69653320312494 L -304.9670104980469 -256.2752380371093 L -301.8999938964844 -254.719741821289 L -299.9175109863281 -254.40771484374994 L -298.5 -254.18460083007807 L -298.4999084472656 -254.18460083007807 L -296.5174560546875 -254.49662780761713 L -295.1000061035156 -254.719741821289 L -294.9119873046875 -254.81509399414057 L -292.0329895019531 -256.2752380371093 L -289.5989990234375 -258.6969604492187 L -288.6958312988281 -260.4599304199218 L -288.0360107421875 -261.74829101562494 L -287.97308349609375 -262.1440124511718 L -287.72662353515625 -263.69363403320307 L -287.49798583984375 -265.1309204101562 L -287.498046875 -265.13110351562494 M -289.63739013671875 -228.18589782714838 L -289.0051574707031 -229.37600708007807 L -288.1495056152344 -230.9866333007812 L -288.1493835449219 -230.98684692382807 L -288.10321044921875 -231.24998474121088 L -287.5559387207031 -234.36367797851557 L -287.5947265625 -234.63752746582026 L -288.03741455078125 -237.757095336914 L -288.0374450683594 -237.757339477539 L -288.16253662109375 -238.01269531249994 L -289.54522705078125 -240.8368072509765 L -289.7467346191406 -241.04476928710932 L -291.9330139160156 -243.30001831054682 L -294.9119873046875 -244.87734985351557 L -294.9660339355469 -244.90596008300776 L -298.3470153808594 -245.49755859374994 L -298.3472595214844 -245.49760437011713 L -298.6311340332031 -245.45738220214838 L -301.74664306640625 -245.01695251464838 L -301.99810791015625 -244.89419555664057 L -304.83111572265625 -243.51025390624994 L -305.0257568359375 -243.32223510742182 L -307.2975769042969 -241.12658691406244 L -307.2977294921875 -241.12643432617182 L -307.4200744628906 -240.89604187011713 L -308.5010070800781 -238.86198425292963 L -308.5010070800781 -237.56799316406244 L -308.5010070800781 -230.27073669433588 L -308.06292724609375 -229.37600708007807 L -307.5104675292969 -228.24758911132807 L -307.3514709472656 -228.08352661132807 L -305.12274169921875 -225.78446960449213 L -305.1226806640625 -225.78439331054682 L -304.922607421875 -225.67845153808588 L -302.090576171875 -224.17843627929682 L -301.86669921875 -224.13926696777338 L -298.7084045410156 -223.58773803710932 L -295.30914306640625 -224.06828308105463 L -295.3090515136719 -224.0682983398437 L -295.0948181152344 -224.17295837402338 L -294.9119873046875 -224.262222290039 L -292.22552490234375 -225.57409667968744 L -292.0479431152344 -225.745620727539 L -289.7580261230469 -227.95881652832026 L -289.7579650878906 -227.95889282226557 L -289.63739013671875 -228.18589782714838 M -349.30499267578125 -353.99999999999994 L -349.30499267578125 -413.99798583984364 L -349.30499267578125 -444.00299072265614 L -372.3869934082031 -444.00299072265614 L -383.9259948730469 -444.00299072265614 L -383.9259948730469 -353.99999999999994 L -404.5010070800781 -353.99999999999994 L -409.5010070800781 -353.99999999999994 L -430.07501220703125 -353.99999999999994 L -430.07501220703125 -444.00299072265614 L -451.99798583984375 -444.00299072265614 L -464.69500732421875 -444.00299072265614 L -464.69500732421875 -413.99798583984364 L -464.69500732421875 -353.99999999999994 L -482 -353.99999999999994 L -482 -413.99798583984364 L -482 -444.00299072265614 L -482 -473.9999999999999 L -475.0799865722656 -473.9999999999999 L -475.0799865722656 -444.00299072265614 L -475.0799865722656 -413.99798583984364 L -471.6130065917969 -413.99798583984364 L -471.6130065917969 -444.00299072265614 L -471.6130065917969 -470.99798583984364 L -451.99798583984375 -470.99798583984364 L -451.99798583984375 -473.9999999999999 L -418.5409851074219 -473.9999999999999 L -418.5409851074219 -470.99798583984364 L -395.4590148925781 -470.99798583984364 L -395.4590148925781 -473.9999999999999 L -372.3869934082031 -473.9999999999999 L -372.3869934082031 -470.99798583984364 L -349.30499267578125 -470.99798583984364 L -349.30499267578125 -473.9999999999999 L -342.3869934082031 -473.9999999999999 L -342.3869934082031 -444.00299072265614 L -342.3869934082031 -413.99798583984364 L -338.9209899902344 -413.99798583984364 L -338.9209899902344 -444.00299072265614 L -338.9209899902344 -473.9999999999999 L -332 -473.9999999999999 L -332 -444.00299072265614 L -332 -413.99798583984364 L -332 -353.99999999999994 L -349.30499267578125 -353.99999999999994 M -485 63.999999999999986 L -485 -85.99999999999999 L -465.00201416015625 -85.99999999999999 L -409.0010070800781 -85.99999999999999 L -352.9989929199219 -85.99999999999999 L -296.99798583984375 -85.99999999999999 L -277 -85.99999999999999 L -277 -78.8199996948242 L -284.9949951171875 -78.8199996948242 L -284.9949951171875 -75.35800170898436 L -277 -75.35800170898436 L -277 53.61700057983397 L -284.9949951171875 53.61700057983397 L -284.9949951171875 57.078998565673814 L -277 57.078998565673814 L -277 63.999999999999986 L -296.99798583984375 63.999999999999986 L -296.99798583984375 57.33000183105467 L -299.99798583984375 57.33000183105467 L -299.99798583984375 63.999999999999986 L -352.9989929199219 63.999999999999986 L -364 63.999999999999986 L -376 63.999999999999986 L -409.0010070800781 63.999999999999986 L -465.00201416015625 63.999999999999986 L -485 63.999999999999986 M -151 56.999999999999986 L -211.0030059814453 56.999999999999986 L -233 56.999999999999986 L -244 56.999999999999986 L -267.99798583984375 56.999999999999986 L -271 56.999999999999986 L -271 49.00299835205077 L -267.99798583984375 49.00299835205077 L -267.99798583984375 36.99999999999999 L -267.99798583984375 8.998000144958494 L -271 8.998000144958494 L -271 -18.999999999999996 L -271 -30.997999191284173 L -267.99798583984375 -30.997999191284173 L -267.99798583984375 -71.00299835205077 L -271 -71.00299835205077 L -271 -74.99999999999999 L -271 -110.99800109863278 L -267.99798583984375 -110.99800109863278 L -267.99798583984375 -130.99999999999997 L -267.99798583984375 -150.99999999999997 L -211.0030059814453 -150.99999999999997 L -211.0030059814453 -147.99800109863278 L -151 -147.99800109863278 L -151 -131.00300598144528 L -211.0030059814453 -131.00300598144528 L -211.0030059814453 -130.99999999999997 L -211.0030059814453 -127.99800109863278 L -151 -127.99800109863278 L -151 -78.00299835205077 L -211.0030059814453 -78.00299835205077 L -211.0030059814453 -74.99999999999999 L -211.0030059814453 -74.9980010986328 L -151 -74.9980010986328 L -151 -22.00300025939941 L -211.0030059814453 -22.00300025939941 L -211.0030059814453 -18.999999999999996 L -211.0030059814453 -18.997999191284176 L -151 -18.997999191284176 L -151 33.998001098632805 L -211.0030059814453 33.998001098632805 L -211.0030059814453 36.99999999999999 L -211.0030059814453 37.002998352050774 L -151 37.002998352050774 L -151 56.999999999999986 M -22 -123.00299835205075 L -51.99599838256836 -123.00299835205075 L -51.99599838256836 -122.99999999999997 L -51.99599838256836 -119.99800109863278 L -22 -119.99800109863278 L -22 -70.00299835205077 L -51.99599838256836 -70.00299835205077 L -51.99599838256836 -66.99999999999999 L -51.99599838256836 -66.9980010986328 L -22 -66.9980010986328 L -22 -14.00300025939941 L -51.99599838256836 -14.00300025939941 L -51.99599838256836 -10.999999999999998 L -51.99599838256836 -10.998000144958494 L -22 -10.998000144958494 L -22 41.998001098632805 L -51.99599838256836 41.998001098632805 L -51.99599838256836 44.99999999999999 L -51.99599838256836 45.002998352050774 L -22 45.002998352050774 L -22 64.99999999999999 L -104 64.99999999999999 L -113 64.99999999999999 L -138.9980010986328 64.99999999999999 L -142 64.99999999999999 L -142 57.00299835205077 L -138.9980010986328 57.00299835205077 L -138.9980010986328 45.002998352050774 L -138.9980010986328 44.99999999999999 L -138.9980010986328 41.998001098632805 L -138.9980010986328 16.997999191284176 L -142 16.997999191284176 L -142 -10.998000144958494 L -142 -10.999999999999998 L -142 -14.00300025939941 L -142 -22.997999191284176 L -138.9980010986328 -22.997999191284176 L -138.9980010986328 -63.00299835205077 L -142 -63.00299835205077 L -142 -66.9980010986328 L -142 -66.99999999999999 L -142 -70.00299835205077 L -142 -102.99800109863278 L -138.9980010986328 -102.99800109863278 L -138.9980010986328 -119.99800109863278 L -138.9980010986328 -122.99999999999997 L -138.9980010986328 -123.00299835205075 L -138.9980010986328 -142.99999999999997 L -138 -142.99999999999997 L -82.00299835205078 -142.99999999999997 L -82.00299835205078 -139.99800109863278 L -22 -139.99800109863278 L -22 -123.00299835205075 M 31 -285.9979858398437 L 33.99800109863281 -285.9979858398437 L 33.99800109863281 -293.1690063476562 L 33.99800109863281 -296.63101196289057 L 33.99800109863281 -425.605987548828 L 33.99800109863281 -429.0679931640624 L 33.99800109863281 -435.9999999999999 L 151.0030059814453 -435.9999999999999 L 481 -435.9999999999999 L 481 463.9999999999999 L 151.0030059814453 463.9999999999999 L 151.0019989013672 463.9999999999999 L 31.99799919128418 463.9999999999999 L 31 463.9999999999999 L 31 463.50299072265614 L 31.99799919128418 463.50299072265614 L 33.99800109863281 463.50299072265614 L 33.99800109863281 463.00299072265614 L 33.99800109863281 460.66900634765614 L 33.99800109863281 335.2229919433593 L 33.99800109863281 328.9450073242187 L 33.99800109863281 328.78100585937494 L 32.99800109863281 328.78100585937494 L 32.99800109863281 325.9450073242187 L 32.99800109863281 325.77600097656244 L 33.99800109863281 325.77600097656244 L 33.99800109863281 319.05700683593744 L 33.99800109863281 207.94299316406244 L 33.99800109863281 201.44400024414057 L 33.99800109863281 201.27900695800776 L 32.99800109863281 201.27900695800776 L 32.99800109863281 198.44400024414057 L 32.99800109863281 198.27400207519526 L 33.99800109863281 198.27400207519526 L 33.99800109863281 190.77699279785153 L 33.99800109863281 66.66400146484374 L 33.99800109863281 63.664001464843736 L 33.99800109863281 63.4980010986328 L 31.99799919128418 63.4980010986328 L 31 63.4980010986328 L 31 62.997001647949205 L 31 -285.9970092773437 L 31 -285.9979858398437 M -425.864501953125 -238.94631958007807 L -425.9840087890625 -238.86564636230463 L -426.0835266113281 -238.79846191406244 L -426.0841979980469 -238.79800415039057 L -426.16094970703125 -238.6998443603515 L -426.324951171875 -238.4909057617187 L -426.3677673339844 -238.37400817871088 L -426.4579772949219 -238.1257934570312 L -426.4583435058594 -238.1248168945312 L -426.4624938964844 -238.0003814697265 L -426.4720764160156 -237.73472595214838 L -426.43798828125 -237.61518859863276 L -426.42437744140625 -237.56799316406244 L -426.3646545410156 -237.36050415039057 L -426.3644104003906 -237.3596801757812 L -426.2946472167969 -237.25675964355463 L -426.1461181640625 -237.036636352539 L -425.9840087890625 -236.9102935791015 L -425.838134765625 -236.79663085937494 L -425.47113037109375 -236.66262817382807 L -425.0813903808594 -236.64968872070307 L -425.0810852050781 -236.649673461914 L -424.9615478515625 -236.68380737304682 L -424.7053527832031 -236.7567749023437 L -424.6019592285156 -236.8263549804687 L -424.3819885253906 -236.97485351562494 L -424.14093017578125 -237.28195190429682 L -424.0372314453125 -237.56799316406244 L -424.00787353515625 -237.64904785156244 L -423.9938049316406 -238.03813171386713 L -424.02838134765625 -238.15827941894526 L -424.10174560546875 -238.4131469726562 L -424.1017761230469 -238.41319274902338 L -424.1716003417969 -238.51669311523432 L -424.3193054199219 -238.73559570312494 L -424.3197326660156 -238.73623657226557 L -424.41845703125 -238.8131713867187 L -424.62774658203125 -238.97692871093744 L -424.745361328125 -239.01985168457026 L -424.9947509765625 -239.11022949218744 L -425.384765625 -239.12417602539057 L -425.7608337402344 -239.01609802246088 L -425.864501953125 -238.94631958007807 M -413.74114990234375 -230.17082214355463 L -413.4331359863281 -229.93081665039057 L -413.066162109375 -229.79682922363276 L -413.0661315917969 -229.7968139648437 L -413.0000305175781 -229.79463195800776 L -412.6762390136719 -229.7838745117187 L -412.6761169433594 -229.7838745117187 L -412.61248779296875 -229.80203247070307 L -412.30023193359375 -229.89096069335932 L -412.2451477050781 -229.92802429199213 L -411.97698974609375 -230.10903930664057 L -411.7359313964844 -230.41613769531244 L -411.6028747558594 -230.78323364257807 L -411.58880615234375 -231.17231750488276 L -411.6612548828125 -231.42399597167963 L -411.6967468261719 -231.54740905761713 L -411.734130859375 -231.60281372070307 L -411.91473388671875 -231.87039184570307 L -411.9147644042969 -231.8704223632812 L -411.96759033203125 -231.9117584228515 L -412.22271728515625 -232.1114654541015 L -412.5897521972656 -232.24441528320307 L -412.97979736328125 -232.25837707519526 L -413.044189453125 -232.23986816406244 L -413.3558349609375 -232.1502838134765 L -413.4112548828125 -232.11299133300776 L -413.6787109375 -231.9324340820312 L -413.6790771484375 -231.9321899414062 L -413.72003173828125 -231.8797760009765 L -413.91998291015625 -231.62509155273432 L -413.94281005859375 -231.56272888183588 L -413.99322509765625 -231.42399597167963 L -414.0530090332031 -231.25952148437494 L -414.0531921386719 -231.25900268554682 L -414.055419921875 -231.19267272949213 L -414.06707763671875 -230.868911743164 L -414.0489196777344 -230.80525207519526 L -413.95941162109375 -230.49429321289057 L -413.95928955078125 -230.49386596679682 L -413.9221496582031 -230.43908691406244 L -413.74114990234375 -230.17082214355463 M -240.96099853515625 -351.0029907226562 L -240.96099853515625 -350.99999999999994 L -240.96099853515625 -347.9979858398437 L -210.95899963378906 -347.9979858398437 L -210.95899963378906 -350.99999999999994 L -210.95899963378906 -351.0029907226562 L -210.96200561523438 -351.0029907226562 L -240.96099853515625 -351.0029907226562 M -112.00199890136719 -123.00299835205075 L -112.00199890136719 -122.99999999999997 L -112.00199890136719 -119.99800109863278 L -81.9990005493164 -119.99800109863278 L -81.9990005493164 -122.99999999999997 L -81.9990005493164 -123.00299835205075 L -82.00299835205078 -123.00299835205075 L -112.00199890136719 -123.00299835205075 M -444.9989929199219 -75.35800170898436 L -409.0010070800781 -75.35800170898436 L -405.00299072265625 -75.35800170898436 L -405.00299072265625 -78.8199996948242 L -409.0010070800781 -78.8199996948242 L -444.9989929199219 -78.8199996948242 L -444.9989929199219 -75.35800170898436 M -444.9989929199219 57.078998565673814 L -409.0010070800781 57.078998565673814 L -405.00299072265625 57.078998565673814 L -405.00299072265625 53.61700057983397 L -409.0010070800781 53.61700057983397 L -444.9989929199219 53.61700057983397 L -444.9989929199219 57.078998565673814 M -364.99700927734375 -78.8199996948242 L -364.99700927734375 -75.35800170898436 L -352.9989929199219 -75.35800170898436 L -325.0010070800781 -75.35800170898436 L -325.0010070800781 -78.8199996948242 L -352.9989929199219 -78.8199996948242 L -364.99700927734375 -78.8199996948242 M -364.99700927734375 53.61700057983397 L -364.99700927734375 57.078998565673814 L -352.9989929199219 57.078998565673814 L -325.0010070800781 57.078998565673814 L -325.0010070800781 53.61700057983397 L -352.9989929199219 53.61700057983397 L -364.99700927734375 53.61700057983397 M -299.99798583984375 -75.3669967651367 L -299.99798583984375 -75.35800170898436 L -299.99798583984375 -68.44899749755858 L -296.99798583984375 -68.44899749755858 L -296.99798583984375 -75.35800170898436 L -296.99798583984375 -75.3669967651367 L -299.99798583984375 -75.3669967651367 M -299.99798583984375 -78.83300018310545 L -296.99798583984375 -78.83300018310545 L -296.99798583984375 -85.75399780273436 L -299.99798583984375 -85.75399780273436 L -299.99798583984375 -78.83300018310545 M -299.99798583984375 -22.29299926757812 L -296.99798583984375 -22.29299926757812 L -296.99798583984375 -45.36600112915038 L -299.99798583984375 -45.36600112915038 L -299.99798583984375 -22.29299926757812 M -296.99798583984375 0.790000021457672 L -299.99798583984375 0.790000021457672 L -299.99798583984375 34.24700164794921 L -296.99798583984375 34.24700164794921 L -296.99798583984375 0.790000021457672 M -210.95899963378906 -294.99999999999994 L -210.95899963378906 -298.0029907226562 L -240.96099853515625 -298.0029907226562 L -240.96099853515625 -294.99999999999994 L -240.96099853515625 -294.9979858398437 L -210.95899963378906 -294.9979858398437 L -210.95899963378906 -294.99999999999994 M -210.95899963378906 -238.99999999999994 L -210.95899963378906 -242.00300598144526 L -240.96099853515625 -242.00300598144526 L -240.96099853515625 -238.99999999999994 L -240.96099853515625 -238.99800109863276 L -210.95899963378906 -238.99800109863276 L -210.95899963378906 -238.99999999999994 M -210.95899963378906 -182.99999999999997 L -210.95899963378906 -186.00300598144528 L -240.96099853515625 -186.00300598144528 L -240.96099853515625 -182.99999999999997 L -240.96099853515625 -182.99800109863278 L -210.95899963378906 -182.99800109863278 L -210.95899963378906 -182.99999999999997 M -81.9990005493164 -66.99999999999999 L -81.9990005493164 -70.00299835205077 L -112.00199890136719 -70.00299835205077 L -112.00199890136719 -66.99999999999999 L -112.00199890136719 -66.9980010986328 L -81.9990005493164 -66.9980010986328 L -81.9990005493164 -66.99999999999999 M -81.9990005493164 -10.999999999999998 L -81.9990005493164 -14.00300025939941 L -112.00199890136719 -14.00300025939941 L -112.00199890136719 -10.999999999999998 L -112.00199890136719 -10.998000144958494 L -81.9990005493164 -10.998000144958494 L -81.9990005493164 -10.999999999999998 M -81.9990005493164 44.99999999999999 L -81.9990005493164 41.998001098632805 L -112.00199890136719 41.998001098632805 L -112.00199890136719 44.99999999999999 L -112.00199890136719 45.002998352050774 L -81.9990005493164 45.002998352050774 L -81.9990005493164 44.99999999999999 M 34 -425.605987548828 L 90.99800109863281 -425.605987548828 L 90.99800109863281 -429.0679931640624 L 34 -429.0679931640624 L 34 -425.605987548828 M 34 -296.63101196289057 L 34 -293.1690063476562 L 90.99800109863281 -293.1690063476562 L 90.99800109863281 -296.63101196289057 L 34 -296.63101196289057 M 34 201.44400024414057 L 90.99700164794922 201.44400024414057 L 90.99700164794922 198.44400024414057 L 34 198.44400024414057 L 34 201.44400024414057 M 34 328.9450073242187 L 90.99700164794922 328.9450073242187 L 90.99700164794922 325.9450073242187 L 34 325.9450073242187 L 34 328.9450073242187 M 35 63.664001464843736 L 35 66.66400146484374 L 91.99700164794922 66.66400146484374 L 91.99700164794922 63.664001464843736 L 35 63.664001464843736 M 35 463.00299072265614 L 35 463.66900634765614 L 91.99700164794922 463.66900634765614 L 91.99700164794922 463.00299072265614 L 91.99700164794922 460.66900634765614 L 35 460.66900634765614 L 35 463.00299072265614 M -409.5010070800781 -332.3809204101562 L -409.5010070800781 -332.3809204101562 M -409.5010070800781 -301.3809204101562 L -409.5010070800781 -301.3809204101562 M -409.5010070800781 -270.3809204101562 L -409.5010070800781 -270.3809204101562 z" fill="none" stroke="rgb(255,0,0)" stroke-width="0.001mm" />
</svg>